<?xml version="1.0" encoding="UTF-8" standalone="no"?>
<!-- Uploaded to: SVG Repo, www.svgrepo.com, Generator: SVG Repo Mixer Tools -->

<svg
   fill="#000000"
   height="800px"
   width="800px"
   version="1.1"
   id="Layer_1"
   viewBox="0 0 502 502"
   xml:space="preserve"
   sodipodi:docname="printer-svgrepo-com.svg"
   inkscape:version="1.2 (dc2aeda, 2022-05-15)"
   xmlns:inkscape="http://www.inkscape.org/namespaces/inkscape"
   xmlns:sodipodi="http://sodipodi.sourceforge.net/DTD/sodipodi-0.dtd"
   xmlns="http://www.w3.org/2000/svg"
   xmlns:svg="http://www.w3.org/2000/svg"><defs
   id="defs82">
			
			
			
			
			
			
			
		
		
	</defs><sodipodi:namedview
   id="namedview80"
   pagecolor="#505050"
   bordercolor="#eeeeee"
   borderopacity="1"
   inkscape:showpageshadow="0"
   inkscape:pageopacity="0"
   inkscape:pagecheckerboard="0"
   inkscape:deskcolor="#505050"
   showgrid="false"
   inkscape:zoom="0.40003933"
   inkscape:cx="393.71129"
   inkscape:cy="626.18843"
   inkscape:window-width="1710"
   inkscape:window-height="1041"
   inkscape:window-x="0"
   inkscape:window-y="43"
   inkscape:window-maximized="1"
   inkscape:current-layer="Layer_1" />
<g
   id="g77">
	<rect
   style="fill:#a9a9a9;fill-opacity:1;stroke-width:0.9230525;stroke-dasharray:none"
   id="rect1221-2-3"
   width="478.2226"
   height="214.37564"
   x="16.336224"
   y="176.38876" /><path
   d="m 492,158.5 h -41 v -135 c 0,-5.522 -4.478,-10 -10,-10 H 61 c -5.522,0 -10,4.478 -10,10 v 135 H 10 c -5.522,0 -10,4.478 -10,10 v 220 c 0,5.522 4.478,10 10,10 h 41 v 80 c 0,5.522 4.478,10 10,10 h 380 c 5.522,0 10,-4.478 10,-10 v -80 h 41 c 5.522,0 10,-4.478 10,-10 v -220 c 0,-5.522 -4.478,-10 -10,-10 z M 71,33.5 h 360 v 125 H 71 Z m 360,435 H 71 v -148 h 360 z m 51,-90 h -31 v -68 c 0,-5.522 -4.478,-10 -10,-10 H 61 c -5.522,0 -10,4.478 -10,10 v 68 H 20 v -200 h 462 z"
   id="path59"
   style="stroke-width:0.560985;stroke-dasharray:none;paint-order:fill markers stroke" /><rect
   style="fill:#ffffff;fill-opacity:1;stroke-width:0.729833"
   id="rect1221-2"
   width="382.07819"
   height="167.66737"
   x="59.43338"
   y="310.61865"
   inkscape:label="rect1221-2" /><path
   d="m 423,268.5 c 15.99,0 29,-13.01 29,-29 0,-15.99 -13.01,-29 -29,-29 -15.99,0 -29,13.01 -29,29 0,15.99 13.01,29 29,29 z m 0,-38 c 4.963,0 9,4.037 9,9 0,4.963 -4.037,9 -9,9 -4.963,0 -9,-4.037 -9,-9 0,-4.963 4.037,-9 9,-9 z"
   id="path61"
   style="stroke-width:0.560985;stroke-dasharray:none;paint-order:fill markers stroke" /><path
   d="m 316,245.40493 h 47 c 5.522,0 10,-3.78501 10,-8.45247 0,-4.66745 -4.478,-8.45246 -10,-8.45246 h -47 c -5.522,0 -10,3.78501 -10,8.45246 0,4.66746 4.478,8.45247 10,8.45247 z"
   id="path63"
   style="stroke-width:0.660688;stroke-dasharray:none;paint-order:fill markers stroke" /><path
   d="m 373.07321,352.12711 h 19.71259 c 4.53554,0 8.21358,-2.15551 8.21358,-4.81355 0,-2.65805 -3.67804,-4.81356 -8.21358,-4.81356 h -19.71259 c -4.53553,0 -8.21358,2.15551 -8.21358,4.81356 0,2.65804 3.67805,4.81355 8.21358,4.81355 z"
   id="path65"
   style="stroke-width:0.352736;stroke-dasharray:none;paint-order:fill markers stroke" /><path
   d="m 197.84648,352.1271 h 155.80303 c 4.0016,0 7.24665,-2.1555 7.24665,-4.81355 0,-2.65805 -3.24505,-4.81355 -7.24665,-4.81355 H 197.84648 c -4.0016,0 -7.24665,2.1555 -7.24665,4.81355 0,2.65805 3.24505,4.81355 7.24665,4.81355 z"
   id="path67"
   style="stroke-width:0.331324;stroke-dasharray:none;paint-order:fill markers stroke" /><path
   d="m 197.61317,393.12773 h 196.37349 c 3.87277,0 7.01334,-2.15564 7.01334,-4.81386 0,-2.65822 -3.14057,-4.81387 -7.01334,-4.81387 H 197.61317 c -3.87277,0 -7.01334,2.15565 -7.01334,4.81387 0,2.65822 3.14057,4.81386 7.01334,4.81386 z"
   id="path69"
   style="stroke-width:0.325957;stroke-dasharray:none;paint-order:fill markers stroke"
   inkscape:label="path69" /><path
   d="m 197.61317,433.12711 h 196.37349 c 3.87277,0 7.01334,-2.15551 7.01334,-4.81356 0,-2.65804 -3.14057,-4.81355 -7.01334,-4.81355 H 197.61317 c -3.87277,0 -7.01334,2.15551 -7.01334,4.81355 0,2.65805 3.14057,4.81356 7.01334,4.81356 z"
   id="path71"
   style="stroke-width:0.325947;stroke-dasharray:none;paint-order:fill markers stroke" /><rect
   style="fill:#ffffff;fill-opacity:1;stroke-width:0.655944"
   id="rect1221"
   width="380.17776"
   height="136.11377"
   x="60.198208"
   y="23.195602" />
</g><g
   transform="matrix(0.47211409,0,0,-0.4794377,53.780309,464.89735)"
   id="g170"><g
     transform="translate(178.06,235.01)"
     id="g164"><path
       d="M 0,0 -22.669,-39.264 -45.338,0 h -75.491 L -22.669,-170.02 75.491,0 Z"
       fill="#41b883"
       id="path162" /></g><g
     transform="translate(178.06,235.01)"
     id="g168"><path
       d="M 0,0 -22.669,-39.264 -45.338,0 H -81.565 L -22.669,-102.01 36.227,0 Z"
       fill="#34495e"
       id="path166" /></g></g>
</svg>
